<?xml version="1.0" standalone="no"?>
<!DOCTYPE svg PUBLIC "-//W3C//DTD SVG 20010904//EN"
 "http://www.w3.org/TR/2001/REC-SVG-20010904/DTD/svg10.dtd">
<svg version="1.0" xmlns="http://www.w3.org/2000/svg"
 width="1800.000000pt" height="754.000000pt" viewBox="0 0 1800.000000 754.000000"
 preserveAspectRatio="xMidYMid meet">

<g transform="translate(0.000000,754.000000) scale(0.100000,-0.100000)"
fill="#000000" stroke="none">
<path d="M10550 4175 l0 -1535 305 0 305 0 0 1535 0 1535 -305 0 -305 0 0
-1535z"/>
<path d="M2140 4100 l0 -1460 900 0 900 0 0 295 0 295 -585 0 -585 0 2 298 3
297 503 3 502 2 0 285 0 285 -505 0 -505 0 2 288 3 287 558 3 557 2 0 290 0
290 -875 0 -875 0 0 -1460z"/>
<path d="M9015 4949 c-49 -4 -126 -17 -170 -28 -96 -25 -277 -113 -360 -176
-33 -25 -63 -45 -67 -45 -5 0 -29 43 -55 95 l-48 95 -202 0 -203 0 0 -1535 0
-1535 305 0 305 0 0 465 0 465 93 -50 c211 -112 440 -151 702 -119 505 62 907
453 990 962 31 192 14 443 -41 619 -117 370 -429 663 -805 757 -75 18 -281 43
-334 40 -11 -1 -60 -5 -110 -10z m239 -589 c111 -28 190 -73 271 -155 120
-119 175 -260 175 -444 0 -174 -56 -316 -169 -431 -119 -121 -233 -170 -411
-177 -201 -9 -331 38 -461 167 -124 122 -179 259 -179 445 0 117 16 189 65
293 74 156 248 286 425 315 72 12 211 6 284 -13z"/>
<path d="M12469 4950 c-546 -47 -979 -439 -1064 -963 -17 -108 -19 -303 -4
-413 60 -431 362 -793 777 -933 219 -74 517 -86 750 -31 386 92 711 388 837
763 43 130 58 252 52 442 -6 187 -26 293 -86 436 -96 231 -313 459 -549 578
-193 97 -460 142 -713 121z m290 -585 c207 -49 371 -215 426 -430 9 -35 15
-104 15 -170 0 -194 -53 -331 -174 -450 -84 -82 -146 -118 -252 -145 -218 -56
-448 2 -594 149 -116 117 -170 258 -170 446 0 191 54 329 175 450 77 77 161
125 261 149 79 19 234 19 313 1z"/>
<path d="M5290 4939 c-166 -25 -336 -112 -474 -240 l-81 -76 -54 133 -54 134
-213 0 -214 0 0 -1125 0 -1125 305 0 304 0 3 693 3 692 28 79 c68 193 189 292
371 303 119 8 186 -13 252 -80 57 -57 87 -124 104 -229 6 -39 10 -334 10 -760
l0 -698 300 0 299 0 4 693 c3 596 5 699 19 744 45 148 117 241 224 294 54 27
79 33 157 36 78 4 101 2 152 -17 112 -42 180 -140 205 -295 6 -35 10 -353 10
-757 l0 -698 305 0 306 0 -4 803 c-3 789 -3 803 -25 885 -44 166 -125 305
-243 418 -119 113 -258 176 -430 196 -173 19 -335 -13 -504 -100 -73 -38 -109
-66 -192 -148 l-102 -101 -30 47 c-78 120 -243 236 -400 279 -88 24 -250 34
-341 20z"/>
<path d="M13704 4872 c4 -10 218 -479 476 -1042 l470 -1024 -66 -134 c-126
-256 -207 -301 -546 -302 l-118 0 0 -276 0 -277 213 6 c271 8 392 35 534 118
139 82 298 283 432 549 51 99 942 2095 1057 2368 l14 32 -327 0 -328 0 -275
-685 c-151 -377 -277 -685 -280 -685 -3 0 -138 307 -301 683 l-296 682 -332 3
c-318 2 -332 1 -327 -16z"/>
</g>
</svg>
